<svg version="1.1" id="Layer_1" xmlns="http://www.w3.org/2000/svg" xmlns:xlink="http://www.w3.org/1999/xlink" x="0px" y="0px"
	 viewBox="0 0 512 512" width="173" height="37"  fill="none">
<g>
	<path d="M44.45,211.73v-5.53c0-88.85,72.29-161.14,161.13-161.14c83.48,0,152.35,63.81,160.35,145.22L405.08,226
		c0.45-4.82,0.7-9.58,0.7-14.27v-5.53C405.78,95.81,315.96,6,205.58,6S5.39,95.81,5.39,206.2v5.53
		c0,55.83,32.01,120.88,95.13,193.41c28.49,32.64,59.52,62.97,92.79,90.71l12.27,9.92V455C166,420.27,44.45,306.07,44.45,211.73z" fill="#008080"/>
	<path d="M354.51,232.73L202.41,371.5l26.26,28.83l11-10V453c0,29.27,23.73,53,53,53h123.67c29.25-0.03,52.95-23.75,52.95-53v-62.65
		l11,10l26.32-28.85L354.51,232.73z M430.24,453c-0.01,7.67-6.22,13.89-13.89,13.9H292.67c-7.67-0.01-13.88-6.23-13.89-13.9v-98.3
		l75.73-69.09l75.73,69.09V453z" fill="#008080"/>
	<rect x="325.7" y="368.3" width="58.59" height="58.6"/>
	<path d="M122.58,206.19c0,45.84,37.16,83,83,83c45.84,0,83-37.16,83-83c0-45.84-37.16-83-83-83
		C159.77,123.25,122.64,160.38,122.58,206.19z M249.53,206.2c0,24.27-19.68,43.95-43.95,43.95c-24.27,0-43.95-19.68-43.95-43.95
		c0-24.27,19.68-43.95,43.95-43.95C229.84,162.28,249.5,181.94,249.53,206.2z" fill="#ff6347"/>
</g>
</svg>
